<?xml version="1.0" encoding="UTF-8"?>
<svg version="1.1" xmlns="http://www.w3.org/2000/svg" width="512" height="512">
<path d="M0 0 C1.23234375 -0.06058594 2.4646875 -0.12117187 3.734375 -0.18359375 C7.54435705 0.48950308 8.87583975 1.43038545 11.22720337 4.45256042 C13.30478928 8.48452766 12.85349373 12.87218217 12.73828125 17.3046875 C12.73324585 18.22258057 12.72821045 19.14047363 12.72302246 20.08618164 C12.69698058 23.49527489 12.62717349 26.90392078 12.5625 30.3125 C12.4078125 41.759375 12.4078125 41.759375 12.25 53.4375 C38.32 53.4375 64.39 53.4375 91.25 53.4375 C91.05243287 38.23954106 91.05243287 38.23954106 90.79956055 23.04248047 C90.78495042 21.12989702 90.772211 19.21729797 90.76171875 17.3046875 C90.73613892 16.32056885 90.71055908 15.3364502 90.6842041 14.32250977 C90.68133356 9.79278928 90.70710629 6.46544874 93.56738281 2.8059082 C96.97896994 -0.20608731 98.80918327 -0.34151125 103.3125 -0.25 C104.52035156 -0.25386719 105.72820312 -0.25773438 106.97265625 -0.26171875 C110.25 0.4375 110.25 0.4375 112.62109375 2.85546875 C114.76330663 6.25115871 115.3743688 7.91851791 115.36352539 11.88720703 C115.36340454 12.82089111 115.36328369 13.7545752 115.36315918 14.71655273 C115.35804321 15.69954346 115.35292725 16.68253418 115.34765625 17.6953125 C115.34664917 18.59757568 115.34564209 19.49983887 115.34460449 20.42944336 C115.33936358 23.80714179 115.32540236 27.18482214 115.3125 30.5625 C115.291875 38.11125 115.27125 45.66 115.25 53.4375 C140.99 53.4375 166.73 53.4375 193.25 53.4375 C193.13141717 38.85298139 193.13141717 38.85298139 192.97973633 24.26879883 C192.97097164 22.43571497 192.96332766 20.60262525 192.95703125 18.76953125 C192.9340094 17.35045471 192.9340094 17.35045471 192.91052246 15.90270996 C192.90853349 10.89382276 193.00573686 7.51931943 196.25 3.4375 C196.67539062 2.8496875 197.10078125 2.261875 197.5390625 1.65625 C201.55942926 -1.2075729 207.5889436 -0.19916059 212.25 0.4375 C215.80423623 2.96647578 216.88748421 4.34995262 218.25 8.4375 C218.33650584 9.92594716 218.36770173 11.41798257 218.36352539 12.90893555 C218.36344986 13.80964279 218.36337433 14.71035004 218.36329651 15.63835144 C218.35813522 16.60718765 218.35297394 17.57602386 218.34765625 18.57421875 C218.34553383 20.06608452 218.34553383 20.06608452 218.34336853 21.58808899 C218.33776761 24.76708982 218.32521496 27.94602043 218.3125 31.125 C218.30748512 33.27929586 218.30292219 35.43359282 218.29882812 37.58789062 C218.28779788 42.87111774 218.27105886 48.15430385 218.25 53.4375 C219.19721169 53.42750725 219.19721169 53.42750725 220.16355896 53.41731262 C226.76645795 53.35067735 233.3692606 53.30558275 239.97241211 53.27270508 C242.43306359 53.2576666 244.89368849 53.23723058 247.35424805 53.21118164 C250.90159692 53.17458144 254.44858977 53.15772365 257.99609375 53.14453125 C259.0870787 53.12904739 260.17806366 53.11356354 261.30210876 53.09761047 C272.43390562 53.09518603 280.81821911 56.03994095 289.25 63.4375 C297.25937263 72.68172237 299.86842678 82.80791115 299.640625 94.7890625 C299.63496521 95.92910736 299.62930542 97.06915222 299.62347412 98.2437439 C299.60125659 101.85044067 299.55108613 105.4561084 299.5 109.0625 C299.47991617 111.52212097 299.46166872 113.98175767 299.4453125 116.44140625 C299.40143985 122.44044953 299.33467526 128.43890121 299.25 134.4375 C299.81296783 134.42861755 300.37593567 134.41973511 300.95596313 134.4105835 C306.82844871 134.3219193 312.70074336 134.2616869 318.57373047 134.21777344 C320.76391324 134.19768893 322.95404259 134.17041583 325.14404297 134.13574219 C328.29668376 134.08708591 331.44861404 134.06449922 334.6015625 134.046875 C335.57678864 134.02622986 336.55201477 134.00558472 337.55679321 133.98431396 C343.45807111 133.98237707 346.73352555 134.54697228 351.25 138.4375 C353.59781141 141.42562362 353.66825081 144.65661188 353.5703125 148.40625 C353.03643864 151.79179158 351.44273902 153.87930448 349.25 156.4375 C346.27656602 158.28731704 344.04889444 158.68364777 340.57324219 158.66455078 C339.17307861 158.66418823 339.17307861 158.66418823 337.74462891 158.66381836 C336.77187012 158.65358643 335.79911133 158.64335449 334.796875 158.6328125 C333.89662598 158.63079834 332.99637695 158.62878418 332.06884766 158.62670898 C328.71251312 158.61626103 325.35625134 158.58833842 322 158.5625 C310.73875 158.500625 310.73875 158.500625 299.25 158.4375 C299.25 184.5075 299.25 210.5775 299.25 237.4375 C314.49283925 237.27937074 314.49283925 237.27937074 329.73510742 237.07714844 C331.6502188 237.06546274 333.56534012 237.05527064 335.48046875 237.046875 C336.46970337 237.02641113 337.45893799 237.00594727 338.47814941 236.98486328 C345.51364267 236.98129694 345.51364267 236.98129694 349.34106445 239.35253906 C352.93286331 243.27554229 353.66180728 246.03579257 353.5 251.4765625 C353.00203658 255.38246305 351.26016386 257.60076675 348.29614258 260.0559082 C343.78625543 262.101388 339.59350521 261.80809762 334.69921875 261.73046875 C333.79997681 261.72744751 332.90073486 261.72442627 331.97424316 261.72131348 C328.62854466 261.70566686 325.2830103 261.66378289 321.9375 261.625 C314.450625 261.563125 306.96375 261.50125 299.25 261.4375 C299.25 287.1775 299.25 312.9175 299.25 339.4375 C313.46037832 339.31898657 313.46037832 339.31898657 327.67041016 339.16723633 C329.45995547 339.15846947 331.24950679 339.150826 333.0390625 339.14453125 C334.41807739 339.1215094 334.41807739 339.1215094 335.82495117 339.09802246 C342.33673127 339.09537755 346.63017432 340.09344544 351.625 344.5625 C353.89717451 348.58250106 353.9152183 351.92058564 353.25 356.4375 C351.92290803 359.82895726 350.81946656 361.06456651 347.78466797 363.05200195 C343.02924546 364.91600408 338.87946812 364.81263694 333.8203125 364.73046875 C332.82998016 364.72622391 331.83964783 364.72197906 330.81930542 364.71760559 C327.67092155 364.70087622 324.52318887 364.66323419 321.375 364.625 C319.23438428 364.60994576 317.09375847 364.59625865 314.953125 364.58398438 C309.71852959 364.5509916 304.48431133 364.50084956 299.25 364.4375 C299.26110306 365.06231262 299.27220612 365.68712524 299.28364563 366.33087158 C299.395016 372.8854734 299.46998685 379.43980268 299.5246582 385.99511719 C299.54966702 388.43533258 299.58368527 390.87547409 299.62719727 393.31542969 C299.68844959 396.84068117 299.71634755 400.36493495 299.73828125 403.890625 C299.76408768 404.9661261 299.7898941 406.0416272 299.81648254 407.14971924 C299.82038751 417.90512763 296.43406718 427.03387658 288.9296875 434.828125 C281.98297314 441.48404666 273.83690149 445.57509134 264.11425781 445.55102539 C263.09350159 445.55094986 262.07274536 445.55087433 261.02105713 445.55079651 C259.92613953 445.54563522 258.83122192 445.54047394 257.703125 445.53515625 C256.5767865 445.5337413 255.450448 445.53232635 254.28997803 445.53086853 C250.69329165 445.52527199 247.09666756 445.5127201 243.5 445.5 C241.06119882 445.49498455 238.62239666 445.49042172 236.18359375 445.48632812 C230.20570792 445.4753037 224.22785841 445.45856898 218.25 445.4375 C218.25999275 446.26649055 218.25999275 446.26649055 218.27018738 447.11222839 C218.33662483 452.87106501 218.38183542 458.62979252 218.41479492 464.38891602 C218.42986915 466.53739851 218.45033189 468.6858503 218.47631836 470.83422852 C218.51276114 473.92471908 218.52974019 477.01480231 218.54296875 480.10546875 C218.55845261 481.06398239 218.57393646 482.02249603 218.58988953 483.01005554 C218.59114621 488.00451795 218.48504851 491.36777965 215.25 495.4375 C214.82460938 496.02402344 214.39921875 496.61054688 213.9609375 497.21484375 C209.92032865 500.1023108 203.92223993 499.17522209 199.25 498.4375 C195.80501954 496.219881 194.53291625 493.28624874 193.25 489.4375 C193.16369074 487.97968278 193.13229019 486.51822526 193.13647461 485.05786133 C193.13659546 484.16490356 193.13671631 483.2719458 193.13684082 482.35192871 C193.14195679 481.41723755 193.14707275 480.48254639 193.15234375 479.51953125 C193.15335083 478.65759155 193.15435791 477.79565186 193.15539551 476.90759277 C193.16062678 473.68838165 193.17458805 470.46918948 193.1875 467.25 C193.208125 460.051875 193.22875 452.85375 193.25 445.4375 C167.51 445.4375 141.77 445.4375 115.25 445.4375 C115.40804138 460.30620222 115.40804138 460.30620222 115.61035156 475.17431641 C115.62204001 477.04588914 115.63223147 478.91747209 115.640625 480.7890625 C115.66108887 481.75158936 115.68155273 482.71411621 115.70263672 483.70581055 C115.70570439 489.62794046 115.12104802 492.88479882 111.25 497.4375 C109.31444577 499.37305423 106.01218175 498.74355899 103.4375 498.8125 C102.19355469 498.86148437 100.94960937 498.91046875 99.66796875 498.9609375 C96.25 498.4375 96.25 498.4375 93.86328125 496.0390625 C91.74970054 492.63072169 91.12563767 490.95411357 91.13647461 486.98779297 C91.13659546 486.05410889 91.13671631 485.1204248 91.13684082 484.15844727 C91.14195679 483.17545654 91.14707275 482.19246582 91.15234375 481.1796875 C91.15335083 480.27742432 91.15435791 479.37516113 91.15539551 478.44555664 C91.16063642 475.06785821 91.17459764 471.69017786 91.1875 468.3125 C91.208125 460.76375 91.22875 453.215 91.25 445.4375 C65.18 445.4375 39.11 445.4375 12.25 445.4375 C12.44756713 460.63545894 12.44756713 460.63545894 12.70043945 475.83251953 C12.71504958 477.74510298 12.727789 479.65770203 12.73828125 481.5703125 C12.76386108 482.55443115 12.78944092 483.5385498 12.8157959 484.55249023 C12.81867288 489.09236759 12.79318297 492.40856508 9.91674805 496.0690918 C5.80109484 499.72431031 2.57635287 499.20557439 -2.703125 498.97265625 C-5.6402104 498.45678356 -6.91638958 498.11546909 -9 496.0625 C-11.27375349 492.65186977 -11.87455985 491.02640605 -11.86352539 486.98779297 C-11.86344986 486.06698944 -11.86337433 485.14618591 -11.86329651 484.19747925 C-11.85813522 483.20160797 -11.85297394 482.20573669 -11.84765625 481.1796875 C-11.84553383 479.65240524 -11.84553383 479.65240524 -11.84336853 478.0942688 C-11.837759 474.83364965 -11.82520488 471.57309849 -11.8125 468.3125 C-11.80748623 466.10546974 -11.80292311 463.89843841 -11.79882812 461.69140625 C-11.78778648 456.27341419 -11.77103905 450.85546195 -11.75 445.4375 C-12.36450516 445.44638245 -12.97901031 445.45526489 -13.61213684 445.4644165 C-20.05309676 445.55344748 -26.49387967 445.61346392 -32.93530273 445.65722656 C-35.33381256 445.67724509 -37.73227418 445.70446833 -40.13061523 445.73925781 C-43.59370882 445.78820613 -47.0561528 445.81056731 -50.51953125 445.828125 C-52.10771416 445.85909271 -52.10771416 445.85909271 -53.72798157 445.89068604 C-65.34351109 445.89412579 -74.73462549 442.15565292 -83.3125 434.3125 C-95.95279449 421.1408657 -94.01860944 402.59006054 -93.875 385.6875 C-93.86495006 383.62240017 -93.85582778 381.55729561 -93.84765625 379.4921875 C-93.82580247 374.4738398 -93.79138347 369.45572309 -93.75 364.4375 C-95.05146973 364.45321045 -96.35293945 364.4689209 -97.69384766 364.48510742 C-102.53558125 364.5395245 -107.37728794 364.57389305 -112.21923828 364.60229492 C-114.31238353 364.61735469 -116.40549736 364.63780671 -118.49853516 364.66381836 C-121.51212328 364.70032501 -124.52529312 364.71725473 -127.5390625 364.73046875 C-128.47054108 364.74595261 -129.40201965 364.76143646 -130.36172485 364.77738953 C-135.59158512 364.77873547 -139.23150478 364.38026235 -143.75 361.4375 C-146.8925429 357.87595138 -147.38487273 354.34033657 -147.23828125 349.7265625 C-146.38319727 345.71792881 -143.95459231 342.90709407 -140.75 340.4375 C-137.89769151 339.54204814 -135.3282823 339.31521093 -132.34863281 339.32397461 C-131.47609863 339.32409546 -130.60356445 339.32421631 -129.70458984 339.32434082 C-128.79660645 339.32945679 -127.88862305 339.33457275 -126.953125 339.33984375 C-125.69121338 339.34135437 -125.69121338 339.34135437 -124.40380859 339.34289551 C-121.26919181 339.34811705 -118.1345945 339.36207832 -115 339.375 C-104.48125 339.4059375 -104.48125 339.4059375 -93.75 339.4375 C-93.75 313.6975 -93.75 287.9575 -93.75 261.4375 C-108.28960747 261.59553091 -108.28960747 261.59553091 -122.82861328 261.79785156 C-124.65917018 261.80954034 -126.48973752 261.81973172 -128.3203125 261.828125 C-129.26124756 261.84858887 -130.20218262 261.86905273 -131.17163086 261.89013672 C-136.87812667 261.89315843 -140.27555843 261.35097999 -144.75 257.4375 C-147.57792793 253.1956081 -147.53122286 249.41876257 -146.75 244.4375 C-145.06987353 241.31458835 -142.96670326 239.04585163 -139.75 237.4375 C-138.26899189 237.34786153 -136.78400576 237.31992075 -135.30029297 237.32397461 C-134.36660889 237.32409546 -133.4329248 237.32421631 -132.47094727 237.32434082 C-131.48795654 237.32945679 -130.50496582 237.33457275 -129.4921875 237.33984375 C-128.13879272 237.34135437 -128.13879272 237.34135437 -126.75805664 237.34289551 C-123.38035821 237.34813642 -120.00267786 237.36209764 -116.625 237.375 C-105.301875 237.4059375 -105.301875 237.4059375 -93.75 237.4375 C-93.75 211.3675 -93.75 185.2975 -93.75 158.4375 C-108.61886755 158.63505474 -108.61886755 158.63505474 -123.48681641 158.88793945 C-125.35838392 158.90254997 -127.22996737 158.9152893 -129.1015625 158.92578125 C-130.06408936 158.95136108 -131.02661621 158.97694092 -132.01831055 159.0032959 C-136.55520606 159.00623354 -139.73615803 158.95531312 -143.35302734 156.03198242 C-147.09650202 151.98004666 -147.08547028 149.27806754 -147.0390625 143.91796875 C-146.63350874 140.43787908 -145.30189308 138.77065939 -142.75 136.4375 C-139.57103387 134.31818925 -138.82025468 134.1905397 -135.18676758 134.21044922 C-134.26603958 134.21060028 -133.34531158 134.21075134 -132.39668274 134.21090698 C-130.91061775 134.22639084 -130.91061775 134.22639084 -129.39453125 134.2421875 C-127.86937141 134.24643234 -127.86937141 134.24643234 -126.31340027 134.25076294 C-123.06298092 134.26196617 -119.81283619 134.28707114 -116.5625 134.3125 C-114.36003002 134.32252961 -112.15755572 134.33165549 -109.95507812 134.33984375 C-104.55329157 134.36190595 -99.15166541 134.39538492 -93.75 134.4375 C-93.76571045 132.47913208 -93.76571045 132.47913208 -93.78173828 130.48120117 C-93.81820229 125.59272044 -93.84099575 120.70425151 -93.85986328 115.81567383 C-93.8698611 113.70823132 -93.88346378 111.60080247 -93.90087891 109.4934082 C-93.92540282 106.44739389 -93.93654559 103.4015645 -93.9453125 100.35546875 C-93.95563507 99.42792282 -93.96595764 98.50037689 -93.97659302 97.54472351 C-93.97865614 85.25158663 -91.52334266 75.33232828 -84.5 65.1875 C-77.07723327 57.76473327 -68.53396822 53.37311162 -57.95483398 53.09692383 C-55.80186214 53.09739273 -53.64884884 53.11397817 -51.49609375 53.14453125 C-50.35463394 53.14877609 -49.21317413 53.15302094 -48.03712463 53.15739441 C-44.4203349 53.17407849 -40.80411902 53.21171234 -37.1875 53.25 C-34.72331538 53.26506008 -32.25912197 53.27874616 -29.79492188 53.29101562 C-23.7797548 53.32394834 -17.76491842 53.37404471 -11.75 53.4375 C-11.75888245 52.87453217 -11.76776489 52.31156433 -11.7769165 51.73153687 C-11.8655807 45.85905129 -11.9258131 39.98675664 -11.96972656 34.11376953 C-11.98981107 31.92358676 -12.01708417 29.73345741 -12.05175781 27.54345703 C-12.10041409 24.39081624 -12.12300078 21.23888596 -12.140625 18.0859375 C-12.16127014 17.11071136 -12.18191528 16.13548523 -12.20318604 15.13070679 C-12.20512457 9.22443487 -11.61017193 5.97740992 -7.75 1.4375 C-5.8163245 -0.4961755 -2.57594117 0.08818056 0 0 Z M-65.75 81.4375 C-68.36603637 85.12157648 -69.1252924 87.61290189 -69.12752342 92.11162472 C-69.13534666 93.24998333 -69.14316991 94.38834194 -69.15123022 95.56119627 C-69.14453805 96.80709754 -69.13784589 98.05299881 -69.13095093 99.33665466 C-69.134408 100.67725778 -69.1391729 102.01785805 -69.14513266 103.35845238 C-69.15766577 107.04116078 -69.15146185 110.7236362 -69.14217401 114.40634549 C-69.13539322 118.37847741 -69.14585996 122.35056894 -69.15411377 126.32269287 C-69.16746404 134.1039016 -69.1645675 141.88502359 -69.15587585 149.66623574 C-69.14910431 155.98996684 -69.14818029 162.31367361 -69.1514473 168.6374073 C-69.15213684 169.98678123 -69.15213684 169.98678123 -69.15284032 171.36341523 C-69.15379949 173.19083818 -69.15477213 175.01826112 -69.1557581 176.84568406 C-69.16431591 193.98782565 -69.15447198 211.12991913 -69.138357 228.27205283 C-69.12495574 242.98290633 -69.12727956 257.6936888 -69.14111328 272.40454102 C-69.15716612 289.48324267 -69.16348949 306.56190213 -69.15427649 323.64061028 C-69.15332083 325.46166582 -69.15237772 327.28272137 -69.1514473 329.10377693 C-69.15098447 329.99979356 -69.15052164 330.89581018 -69.15004479 331.81897883 C-69.14745385 338.13508653 -69.1518282 344.45116748 -69.15888596 350.76727104 C-69.16729796 358.46462809 -69.16502722 366.16189335 -69.14904372 373.85923987 C-69.14115661 377.78706114 -69.13807683 381.71472936 -69.14799118 385.64254951 C-69.1569297 389.23814292 -69.15201935 392.83344137 -69.13605852 396.42900801 C-69.13111927 398.34602576 -69.1409149 400.26306397 -69.15123022 402.18006033 C-69.14011863 410.23803402 -69.14011863 410.23803402 -65.75 417.4375 C-61.65130259 421.27176532 -57.71181377 421.56192591 -52.26418591 421.56892776 C-51.14236862 421.57276891 -50.02055134 421.57661005 -48.8647396 421.5805676 C-47.6321714 421.57970112 -46.3996032 421.57883463 -45.12968445 421.57794189 C-43.16573588 421.58239858 -43.16573588 421.58239858 -41.16211158 421.5869453 C-37.52475415 421.59501435 -33.88741646 421.59680481 -30.25005114 421.59754276 C-26.32833681 421.59939346 -22.40663273 421.60694084 -18.48492432 421.61367798 C-9.90851982 421.62726074 -1.33212001 421.63328581 7.24429345 421.63768864 C12.59865115 421.64045092 17.95300704 421.64468823 23.30736351 421.64919281 C38.13005745 421.66138496 52.95274995 421.67168467 67.7754488 421.6750679 C68.72415059 421.67528747 69.67285239 421.67550703 70.65030272 421.67573325 C72.07676925 421.67606067 72.07676925 421.67606067 73.53205329 421.6763947 C75.459113 421.67683817 77.38617271 421.67728473 79.31323242 421.67773438 C80.26912158 421.6779558 81.22501075 421.67817723 82.20986625 421.67840537 C97.70193537 421.68235419 113.19395748 421.69981098 128.68600843 421.7230939 C144.58883526 421.74680142 160.49163848 421.75926946 176.39448327 421.76043582 C185.3244347 421.76135287 194.25432485 421.76711282 203.18425941 421.78525543 C210.78754418 421.80064827 218.39074874 421.80578169 225.99404613 421.79751733 C229.87338703 421.79360804 233.75256637 421.79455397 237.63188744 421.80857468 C241.83761978 421.82363615 246.04298734 421.81545549 250.24873352 421.80499268 C251.47460955 421.81304908 252.70048559 421.82110548 253.96350938 421.82940602 C260.15654228 421.79327849 264.8302855 421.55146012 270.25 418.4375 C274.74260584 413.82666769 275.37409406 410.20401361 275.37863445 403.94609928 C275.3818589 402.8230486 275.38508335 401.69999792 275.3884055 400.5429154 C275.3868569 399.30898297 275.3853083 398.07505053 275.38371277 396.8037262 C275.38597833 395.49301602 275.38824388 394.18230584 275.39057809 392.83187717 C275.39670382 389.19065615 275.39656159 385.54945805 275.39538372 381.90823305 C275.39517991 377.98246873 275.40069653 374.05671181 275.40544128 370.13095093 C275.41375238 362.43886843 275.41649632 354.7467936 275.41705366 347.054707 C275.41752856 340.80389004 275.41958198 334.55307561 275.42275429 328.30225945 C275.43156173 310.58787245 275.43617347 292.87349152 275.43542381 275.15910233 C275.43538386 274.20385198 275.4353439 273.24860163 275.43530273 272.2644043 C275.43526185 271.30799051 275.43522097 270.35157673 275.43517885 269.36618071 C275.43477225 253.8598387 275.44434527 238.35352096 275.4584411 222.84718598 C275.47279373 206.93306883 275.47971192 191.01896353 275.47884732 175.10483974 C275.47851499 166.1671429 275.48127792 157.2294715 275.49202538 148.29178047 C275.5011157 140.68332605 275.50331771 133.07490861 275.49651595 125.46645112 C275.49324344 121.58334205 275.49322033 117.700304 275.5018692 113.81720161 C275.51114191 109.61083272 275.50497737 105.40462937 275.49723816 101.19825745 C275.5049535 99.35070487 275.5049535 99.35070487 275.51282471 97.465828 C275.50592652 95.77734036 275.50592652 95.77734036 275.49888897 94.05474186 C275.49910634 93.08368694 275.49932371 92.11263203 275.49954766 91.11215121 C274.96112567 85.34134569 272.54694794 82.2104299 268.25 78.4375 C265.16479441 77.40909814 263.054975 77.30916209 259.82197094 77.30327892 C258.68759443 77.29882108 257.55321791 77.29436324 256.38446635 77.28977031 C254.50687592 77.29004685 254.50687592 77.29004685 252.59135437 77.29032898 C251.25248016 77.2870301 249.91360693 77.28330448 248.57473499 77.2791875 C244.88758372 77.26916236 241.20044873 77.26544989 237.51328576 77.26279819 C233.53976443 77.25889674 229.56625601 77.24931838 225.59274292 77.24058533 C215.99358879 77.22081784 206.39443361 77.21075497 196.79526421 77.20185754 C192.27679117 77.19747566 187.7583193 77.19210864 183.23984718 77.18686867 C168.22332216 77.16985715 153.20679788 77.15536193 138.1902647 77.14811993 C134.29294013 77.14620998 130.39561556 77.14428966 126.49829102 77.14233398 C125.04527187 77.14160837 125.04527187 77.14160837 123.56289879 77.1408681 C107.86314696 77.13256385 92.16347123 77.10721992 76.46375265 77.07475331 C60.35191035 77.0417055 44.24010677 77.02367329 28.12823039 77.02047569 C19.07922542 77.01830862 10.03033146 77.00953118 0.98135948 76.98401451 C-6.72336848 76.96233873 -14.42795848 76.9542417 -22.13271347 76.96398129 C-26.06462789 76.96853492 -29.99625743 76.96657844 -33.92813301 76.94721985 C-37.5275629 76.92965086 -41.12649878 76.93053429 -44.72593345 76.94611714 C-46.6450565 76.94963309 -48.56418435 76.93342027 -50.48323613 76.91651267 C-58.94540476 76.95086427 -58.94540476 76.95086427 -65.75 81.4375 Z " fill="#000000" transform="translate(152.75,6.5625)"/>
<path d="M0 0 C1.20206784 -0.00445668 1.20206784 -0.00445668 2.42841989 -0.0090034 C5.12288876 -0.01769856 7.81731324 -0.01919935 10.51179504 -0.02069092 C12.44012039 -0.02531858 14.36844483 -0.03034317 16.29676819 -0.03573608 C21.54282781 -0.04886861 26.78887462 -0.05530691 32.03494811 -0.05974674 C35.312356 -0.06267658 38.58976039 -0.06678126 41.86716652 -0.07125092 C52.12087907 -0.08492916 62.37458362 -0.09459376 72.62830466 -0.09845281 C84.46528103 -0.10293209 96.30214185 -0.12047264 108.13908309 -0.1494534 C117.28739063 -0.17107389 126.43566568 -0.18115731 135.5839985 -0.18249393 C141.04819288 -0.18354185 146.51227867 -0.18944679 151.97644615 -0.20731354 C157.11872912 -0.22380011 162.26082196 -0.22594681 167.40312195 -0.21717453 C169.28807395 -0.21640443 171.1730362 -0.22074334 173.05796242 -0.23063278 C175.63668598 -0.24336612 178.21473762 -0.23746804 180.79345703 -0.22705078 C181.53462475 -0.23510719 182.27579248 -0.24316359 183.03941983 -0.25146413 C189.32525723 -0.19231482 194.39224908 1.46071657 199.83918762 4.70294189 C206.41342607 11.45018662 209.3619023 18.59127663 209.36808777 27.87483215 C209.37466115 29.06865797 209.37466115 29.06865797 209.38136733 30.28660148 C209.39475797 32.96257475 209.40093485 35.63851509 209.40705872 38.31451416 C209.41495962 40.22974293 209.42322856 42.14497021 209.43183899 44.06019592 C209.45806556 50.35906552 209.4733696 56.65794178 209.48762512 62.95684814 C209.49298498 65.12568605 209.49836249 67.29452392 209.50375748 69.46336174 C209.5253892 78.48703339 209.54412475 87.51070324 209.55537987 96.53439426 C209.57161047 109.46200057 209.60476352 122.3893059 209.66178071 135.31679875 C209.70050951 144.40823544 209.72001619 153.49959173 209.72530043 162.59110874 C209.7289505 168.01968803 209.74093504 173.44794635 209.77340317 178.87643623 C209.80353444 183.98762639 209.80977745 189.09830222 209.79801941 194.2095623 C209.79779908 196.08078811 209.80607005 197.95203813 209.82367325 199.82318115 C210.00277859 219.96546123 210.00277859 219.96546123 202.2242794 228.26317692 C195.91286513 234.33913231 189.68210467 236.59775994 180.9987793 236.53485107 C180.19947772 236.54094218 179.40017614 236.54703328 178.5766533 236.55330896 C175.91296009 236.56988507 173.24974773 236.56517091 170.58601379 236.56036377 C168.67019151 236.56770729 166.75437364 236.57629434 164.83856201 236.58602905 C159.6442166 236.60822539 154.45002993 236.61117662 149.25564361 236.60928154 C144.91435222 236.60916174 140.57309434 236.61772998 136.2318123 236.62605906 C125.9862499 236.64528686 115.74076898 236.64817941 105.49519348 236.64141846 C94.93813428 236.6347799 84.38142467 236.65763613 73.82443637 236.69473219 C64.74988362 236.72545799 55.67544315 236.73678603 46.60083944 236.73289537 C41.18576323 236.73083065 35.77095902 236.73626446 30.35593224 236.76078796 C25.26106469 236.78309965 20.16676416 236.78114033 15.07189369 236.76086044 C13.20712974 236.75745809 11.34232729 236.76250593 9.47761536 236.77684402 C-2.00499803 236.85901003 -10.53023924 236.44407999 -19.66081238 228.70294189 C-25.05965301 222.19257525 -26.93502038 217.67188155 -26.9329834 209.31666565 C-26.93666009 208.51120353 -26.94033677 207.70574142 -26.94412488 206.87587136 C-26.95516819 204.16758704 -26.95900666 201.45934108 -26.96281433 198.7510376 C-26.96907852 196.81285988 -26.97572528 194.87468337 -26.98272705 192.93650818 C-27.00014137 187.66359374 -27.01069012 182.39068838 -27.01893258 177.11775231 C-27.02408211 173.8235936 -27.03015788 170.52943771 -27.03644371 167.23528099 C-27.05549749 156.9292449 -27.06972791 146.62321599 -27.07805568 136.31716567 C-27.08782805 124.41959512 -27.1141469 112.52221061 -27.15455657 100.62470561 C-27.18471574 91.42969012 -27.19952439 82.23472796 -27.20283669 73.03966397 C-27.20518749 67.54748515 -27.2141519 62.05550506 -27.23929787 56.56337929 C-27.26257984 51.3947923 -27.26681121 46.22653485 -27.25653648 41.05790901 C-27.25604104 39.1632757 -27.26236402 37.26862615 -27.27609253 35.37404251 C-27.2938204 32.78201382 -27.28670125 30.19116661 -27.27355957 27.59913635 C-27.28452882 26.85407768 -27.29549806 26.10901901 -27.30679971 25.3413828 C-27.21591 17.88675932 -23.97015252 11.46879149 -18.78581238 6.14044189 C-12.49479803 1.6359225 -7.76646101 -0.00894498 0 0 Z M-2.78581238 25.14044189 C-2.88569147 27.54142773 -2.92023528 29.91370458 -2.91279602 32.31524658 C-2.91435601 33.07493618 -2.915916 33.83462578 -2.91752326 34.61733627 C-2.92153618 37.18234911 -2.91834251 39.74730354 -2.91520691 42.31231689 C-2.91656082 44.14333125 -2.9183407 45.97434533 -2.92051697 47.80535889 C-2.9250925 52.79281781 -2.92330125 57.78025615 -2.92013788 62.76771545 C-2.9176149 67.974966 -2.91995165 73.18221472 -2.92152405 78.38946533 C-2.92334592 87.13588784 -2.92093896 95.88230192 -2.91618347 104.62872314 C-2.91074082 114.75626679 -2.91250346 124.88379031 -2.91800988 135.01133347 C-2.92254049 143.68985543 -2.92319181 152.36837131 -2.92057121 161.04689407 C-2.91900815 166.23754456 -2.91881545 171.42818557 -2.9221077 176.61883545 C-2.92498567 181.49755297 -2.92301209 186.37624442 -2.91721344 191.25495911 C-2.91588544 193.05092831 -2.91628063 194.84689969 -2.9184761 196.64286804 C-2.92118606 199.08382124 -2.9178084 201.5246895 -2.91279602 203.96563721 C-2.9161421 205.04581934 -2.9161421 205.04581934 -2.91955578 206.14782333 C-3.18857805 209.42566815 -3.18857805 209.42566815 -1.78581238 212.14044189 C0.61747291 212.23810731 2.99198114 212.27041017 5.39572144 212.26069641 C6.1561166 212.26155084 6.91651176 212.26240526 7.6999492 212.26328558 C10.26730012 212.26494267 12.83458679 212.25941529 15.40193176 212.25396729 C17.23456826 212.25368544 19.06720487 212.2538431 20.89984131 212.25440979 C25.89136824 212.25469786 30.88287137 212.24879967 35.87439275 212.24183583 C41.08477869 212.2356038 46.29516511 212.23499862 51.5055542 212.23381042 C61.37949787 212.23069666 71.25343053 212.22248267 81.12736934 212.21246094 C92.36538763 212.20130119 103.60340643 212.1957897 114.84142888 212.1907655 C137.96568791 212.18030009 161.08993715 212.16269979 184.21418762 212.14044189 C185.70036649 209.16808417 185.35136217 206.14209244 185.34117126 202.88334656 C185.34273126 202.12688609 185.34429125 201.37042562 185.34589851 200.5910421 C185.3499039 198.04295468 185.34672065 195.4949263 185.34358215 192.94683838 C185.34493639 191.12552861 185.34671644 189.30421912 185.34889221 187.48291016 C185.35346359 182.52650115 185.35167827 177.57011288 185.34851313 172.61370349 C185.3459884 167.4371553 185.34832734 162.26060893 185.34989929 157.08406067 C185.35172049 148.39069295 185.3493158 139.69733372 185.34455872 131.00396729 C185.33911448 120.93831879 185.34088012 110.87269054 185.34638512 100.80704254 C185.35091562 92.1794554 185.35156716 83.55187437 185.34894645 74.92428643 C185.34738355 69.76494996 185.34719031 64.60562302 185.35048294 59.44628716 C185.3533608 54.59792503 185.35138755 49.74958914 185.34558868 44.90122986 C185.3442607 43.11654771 185.34465585 41.33186337 185.34685135 39.54718208 C185.34956131 37.12160892 185.34618366 34.69612123 185.34117126 32.27055359 C185.34340199 31.55500524 185.34563271 30.83945688 185.34793103 30.10222524 C185.61410373 26.84054263 185.61410373 26.84054263 184.21418762 24.14044189 C181.81320178 24.0405628 179.44092493 24.00601899 177.03938293 24.01345825 C176.27969334 24.01189826 175.52000374 24.01033827 174.73729324 24.00873101 C172.17228041 24.00471809 169.60732597 24.00791177 167.04231262 24.01104736 C165.21129827 24.00969345 163.38028419 24.00791358 161.54927063 24.0057373 C156.56181171 24.00116177 151.57437337 24.00295302 146.58691406 24.00611639 C141.37966352 24.00863938 136.17241479 24.00630263 130.96516418 24.00473022 C122.21874168 24.00290835 113.4723276 24.00531531 104.72590637 24.0100708 C94.59836273 24.01551345 84.47083921 24.01375081 74.34329605 24.0082444 C65.66477409 24.00371378 56.9862582 24.00306246 48.30773544 24.00568306 C43.11708496 24.00724612 37.92644395 24.00743882 32.73579407 24.00414658 C27.85707655 24.00126861 22.9783851 24.00324218 18.09967041 24.00904083 C16.30370121 24.01036883 14.50772983 24.00997365 12.71176147 24.00777817 C10.27080827 24.00506821 7.82994001 24.00844587 5.38899231 24.01345825 C4.66887089 24.01122753 3.94874947 24.00899681 3.20680618 24.00669849 C-0.07103863 23.73767622 -0.07103863 23.73767622 -2.78581238 25.14044189 Z " fill="#000000" transform="translate(164.7858123779297,137.85955810546875)"/>
<path d="M0 0 C8.5878032 7.57509056 11.63135481 19.00607779 13 30 C13.28942743 34.75379373 13.33399548 39.48828421 13.3125 44.25 C13.30512817 46.17162964 13.30512817 46.17162964 13.29760742 48.13208008 C13.11872956 62.56247836 11.80316342 78.19683658 1 89 C-8.2269959 95.92024692 -17.67059845 96.93246103 -29 96 C-36.02497959 94.47734432 -42.43113802 91.69103861 -47 86 C-59.36826549 66.55580011 -58.98926663 40.15211752 -54.18359375 18.28515625 C-51.46784437 9.27432252 -46.64326935 2.45947811 -39 -3 C-26.44424618 -9.27787691 -11.19004691 -8.86668971 0 0 Z M-31 14 C-34.57554164 20.89568745 -35.15807453 27.42092352 -35.203125 35.07421875 C-35.20882507 35.83869827 -35.21452515 36.6031778 -35.22039795 37.39082336 C-35.22980505 39.00361771 -35.23636477 40.61643091 -35.24023438 42.22924805 C-35.24990247 44.6629504 -35.28095048 47.09579352 -35.3125 49.52929688 C-35.65239539 63.24596456 -35.65239539 63.24596456 -30.79541016 75.76513672 C-28.003429 78.56095697 -25.2398677 79.34739101 -21.4375 79.5625 C-18.37782247 79.36194971 -16.90680358 78.95137578 -14.125 77.5 C-6.99643451 69.11345237 -7.78935321 57.33650964 -7.75976562 46.94140625 C-7.75012106 44.90061704 -7.71906 42.86086378 -7.6875 40.8203125 C-7.30775567 25.78370093 -7.30775567 25.78370093 -13.5625 12.75 C-19.5400619 8.4584171 -25.97638373 8.40225616 -31 14 Z " fill="#000000" transform="translate(316,211)"/>
<path d="M0 0 C9.1475375 8.3821313 12.48025985 19.50996214 13.22290039 31.64111328 C13.3205207 35.08839648 13.37138985 38.52645692 13.37060547 41.97460938 C13.37495114 44.10109333 13.41130516 46.22544728 13.44921875 48.3515625 C13.55914606 61.7396639 11.80752014 76.32113609 3 87 C-4.02844479 93.96900763 -11.65601487 96.13224312 -21.375 96.4375 C-29.78102217 96.25201105 -36.25269822 94.40392944 -43.3125 89.875 C-55.17031636 77.18989412 -56.18245276 61.46124353 -56.25 44.9375 C-56.270625 43.70322266 -56.29125 42.46894531 -56.3125 41.19726562 C-56.37002406 27.45620648 -54.47689127 12.54067662 -45.078125 1.8046875 C-32.83108757 -9.54043632 -13.11499966 -10.51876503 0 0 Z M-30 13 C-35.40012893 22.1093084 -35.18651553 31.88152 -35.18530273 42.16845703 C-35.18747995 44.23100727 -35.20565389 46.2930134 -35.22460938 48.35546875 C-35.51044793 63.67839328 -35.51044793 63.67839328 -29 77 C-25.89013793 79.07324138 -25.10891613 79.27392186 -21.5625 79.25 C-20.80066406 79.25515625 -20.03882813 79.2603125 -19.25390625 79.265625 C-16.67723854 78.96196225 -15.15225993 78.45300248 -13 77 C-11.69644823 75.05112919 -11.69644823 75.05112919 -10.8125 72.75 C-10.48894531 72.00234375 -10.16539062 71.2546875 -9.83203125 70.484375 C-8.02790508 65.09740673 -7.84090849 59.70918042 -7.83203125 54.07421875 C-7.82870285 53.32719193 -7.82537445 52.5801651 -7.82194519 51.8105011 C-7.81690485 50.2363852 -7.81453597 48.66225872 -7.81469727 47.08813477 C-7.81251607 44.70505771 -7.79434431 42.32244817 -7.77539062 39.93945312 C-7.49758807 25.03245909 -7.49758807 25.03245909 -14 12 C-18.88276721 8.29583177 -25.57273621 9.05135932 -30 13 Z " fill="#000000" transform="translate(238,211)"/>
</svg>
