<?xml version="1.0" encoding="UTF-8"?>
<svg version="1.1" xmlns="http://www.w3.org/2000/svg" width="500" height="500">
<path d="M0 0 C3.49753391 2.2868491 4.66312775 3.55026324 5.60327148 7.59619141 C6.10053063 11.86252191 6.12401083 16.04491372 6.09765625 20.3359375 C6.09664917 21.11622314 6.09564209 21.89650879 6.09460449 22.70043945 C6.08940541 25.59197476 6.07544433 28.48348899 6.0625 31.375 C6.041875 37.85125 6.02125 44.3275 6 51 C31.08 51 56.16 51 82 51 C81.80245821 36.46022337 81.80245821 36.46022337 81.54956055 21.92138672 C81.53494962 20.09083516 81.52221038 18.2602673 81.51171875 16.4296875 C81.48613892 15.48875244 81.46055908 14.54781738 81.4342041 13.57836914 C81.4312667 9.14053831 81.51933871 5.97461173 84.31738281 2.39575195 C87.72692029 -0.64918718 89.54073183 -0.7793862 94.0625 -0.6875 C95.27035156 -0.69136719 96.47820312 -0.69523438 97.72265625 -0.69921875 C101 0 101 0 103.37109375 2.35546875 C105.49095138 5.79706015 106.12514861 8.32432398 106.11352539 12.2878418 C106.11340454 13.16049683 106.11328369 14.03315186 106.11315918 14.93225098 C106.10804321 15.84535034 106.10292725 16.75844971 106.09765625 17.69921875 C106.09664917 18.54150024 106.09564209 19.38378174 106.09460449 20.25158691 C106.08937384 23.39690513 106.07541257 26.54220394 106.0625 29.6875 C106.041875 36.720625 106.02125 43.75375 106 51 C131.08 51 156.16 51 182 51 C181.88142401 36.744579 181.88142401 36.744579 181.72973633 22.48950195 C181.72097142 20.69743384 181.71332749 18.90535974 181.70703125 17.11328125 C181.6840094 15.72659241 181.6840094 15.72659241 181.66052246 14.31188965 C181.6585143 9.3671247 181.76715992 6.00997926 185 2 C187.84964947 -0.84964947 189.90492824 -0.33373106 193.875 -0.375 C195.10992187 -0.40335937 196.34484375 -0.43171875 197.6171875 -0.4609375 C201 0 201 0 203.3828125 1.8359375 C205.75394256 5.00889898 206.1245391 7.53585242 206.11352539 11.37963867 C206.11344986 12.26032516 206.11337433 13.14101166 206.11329651 14.04838562 C206.10813522 14.99534805 206.10297394 15.94231049 206.09765625 16.91796875 C206.09553383 18.37654045 206.09553383 18.37654045 206.09336853 19.86457825 C206.08776817 22.97225004 206.07521562 26.07984996 206.0625 29.1875 C206.05748505 31.29361875 206.05292213 33.39973863 206.04882812 35.50585938 C206.03779862 40.67060064 206.02053375 45.83528813 206 51 C206.85325111 50.99333817 206.85325111 50.99333817 207.72373962 50.98654175 C213.67786125 50.94207837 219.63193521 50.9120386 225.58618164 50.89013672 C227.80430011 50.88011826 230.0224055 50.86649974 232.24047852 50.84912109 C235.44029989 50.82468949 238.63994567 50.81347504 241.83984375 50.8046875 C242.82145981 50.79436493 243.80307587 50.78404236 244.81443787 50.77340698 C256.27327944 50.77156608 266.12426519 53.20990753 275.078125 60.75 C282.35327699 68.34146295 285.57024865 77.91480701 285.56648254 88.28778076 C285.54067612 89.36328186 285.51486969 90.43878296 285.48828125 91.546875 C285.48120651 92.68408997 285.47413177 93.82130493 285.46684265 94.99298096 C285.43914187 98.57936015 285.37644769 102.16410303 285.3125 105.75 C285.2873858 108.20049808 285.26457815 110.65102095 285.24414062 113.1015625 C285.18939537 119.06825447 285.10601695 125.03401029 285 131 C285.56296783 130.98889694 286.12593567 130.97779388 286.70596313 130.96635437 C292.57839045 130.85552523 298.45051954 130.78023572 304.32373047 130.7253418 C306.51395744 130.70023566 308.70410094 130.66614363 310.89404297 130.62280273 C314.04675922 130.56198093 317.19836553 130.53375077 320.3515625 130.51171875 C321.8144017 130.47300911 321.8144017 130.47300911 323.30679321 130.43351746 C327.78956669 130.4316783 331.00154471 130.49199417 334.60302734 133.34301758 C337.46192119 136.51202774 337.93704822 138.150151 338.25 142.375 C337.92720731 147.05549402 336.6683725 149.51318371 333.18292236 152.61933899 C330.64178043 154.22656774 329.30308266 154.3651353 326.32324219 154.34057617 C325.3897998 154.34021362 324.45635742 154.33985107 323.49462891 154.33947754 C322.52187012 154.32412964 321.54911133 154.30878174 320.546875 154.29296875 C319.64662598 154.28994751 318.74637695 154.28692627 317.81884766 154.28381348 C314.46244815 154.26814124 311.10621232 154.22625719 307.75 154.1875 C300.2425 154.125625 292.735 154.06375 285 154 C285 179.41 285 204.82 285 231 C299.53960747 230.84196909 299.53960747 230.84196909 314.07861328 230.63964844 C315.90917018 230.62795966 317.73973752 230.61776828 319.5703125 230.609375 C320.51124756 230.58891113 321.45218262 230.56844727 322.42163086 230.54736328 C328.2844322 230.54425881 331.50777673 231.14488844 336 235 C338.58644464 238.4094043 338.36503115 241.8386449 338 246 C336.48007896 249.18459646 334.71704041 251.73579966 332 254 C329.19462697 254.93512434 327.51834636 255.12182907 324.62036133 255.11352539 C323.28092468 255.11334412 323.28092468 255.11334412 321.91442871 255.11315918 C320.97973755 255.10804321 320.04504639 255.10292725 319.08203125 255.09765625 C318.22009155 255.09664917 317.35815186 255.09564209 316.47009277 255.09460449 C313.25088165 255.08937322 310.03168948 255.07541195 306.8125 255.0625 C299.614375 255.041875 292.41625 255.02125 285 255 C285 280.08 285 305.16 285 331 C299.16547137 330.84206408 299.16547137 330.84206408 313.33032227 330.63964844 C315.11734051 330.6279567 316.90436946 330.61776603 318.69140625 330.609375 C319.60563354 330.58891113 320.51986084 330.56844727 321.46179199 330.54736328 C327.52005008 330.5440819 331.02981953 331.48194437 336 335 C338.44217577 337.97308355 338.36247602 341.25705629 338.25 345.0390625 C337.75131768 348.95060193 336.0094783 351.16964491 333.0324707 353.6184082 C328.58629545 355.64408293 324.49597928 355.37096057 319.66796875 355.29296875 C318.67622147 355.28872391 317.68447418 355.28447906 316.66267395 355.28010559 C313.50400315 355.26335123 310.34597703 355.22570448 307.1875 355.1875 C305.04232694 355.17244899 302.89714385 355.15876132 300.75195312 355.14648438 C295.50108319 355.11345841 290.25058766 355.06329122 285 355 C285.00999275 355.93175049 285.00999275 355.93175049 285.02018738 356.88232422 C285.0867705 363.37152916 285.1318958 369.86063639 285.16479492 376.35009766 C285.17984279 378.7690831 285.20028588 381.18804143 285.22631836 383.60693359 C285.262877 387.09219063 285.2797669 390.5770856 285.29296875 394.0625 C285.30845261 395.13677246 285.32393646 396.21104492 285.33988953 397.31787109 C285.34217142 407.59431773 282.35408907 416.35867439 275.1796875 423.91796875 C268.35752302 430.19168471 261.23981596 434.13673222 251.86425781 434.11352539 C250.84350159 434.11344986 249.82274536 434.11337433 248.77105713 434.11329651 C247.67613953 434.10813522 246.58122192 434.10297394 245.453125 434.09765625 C244.3267865 434.0962413 243.200448 434.09482635 242.03997803 434.09336853 C238.44329165 434.08777199 234.84666756 434.0752201 231.25 434.0625 C228.81119882 434.05748455 226.37239666 434.05292172 223.93359375 434.04882812 C217.95570792 434.0378037 211.97785841 434.02106898 206 434 C206.00888245 434.55043976 206.01776489 435.10087952 206.0269165 435.66799927 C206.11559291 441.41072172 206.17581803 447.15324883 206.21972656 452.89648438 C206.23980888 455.03816634 206.26708037 457.1797937 206.30175781 459.32128906 C206.35042398 462.40443415 206.3730029 465.48685262 206.390625 468.5703125 C206.41127014 469.52366486 206.43191528 470.47701721 206.45318604 471.45925903 C206.45514176 477.28828944 205.87340289 480.55486051 202 485 C197.80888835 487.09555583 192.55233879 486.55842023 188 486 C185.02638914 483.78436838 183.63040207 482.26080415 182 479 C181.91050583 477.54962893 181.8824156 476.09521371 181.88647461 474.64208984 C181.88659546 473.7287085 181.88671631 472.81532715 181.88684082 471.87426758 C181.89195679 470.91286865 181.89707275 469.95146973 181.90234375 468.9609375 C181.90335083 468.07833252 181.90435791 467.19572754 181.90539551 466.28637695 C181.91063605 462.98257146 181.92459727 459.67878445 181.9375 456.375 C181.958125 448.99125 181.97875 441.6075 182 434 C156.92 434 131.84 434 106 434 C106.11857599 448.255421 106.11857599 448.255421 106.27026367 462.51049805 C106.27902858 464.30256616 106.28667251 466.09464026 106.29296875 467.88671875 C106.3159906 469.27340759 106.3159906 469.27340759 106.33947754 470.68811035 C106.34149375 475.65270032 106.19957042 478.9469108 103 483 C102.57460938 483.58652344 102.14921875 484.17304688 101.7109375 484.77734375 C99.08618024 486.65302645 96.80996479 486.50783813 93.625 486.5625 C92.50351563 486.60503906 91.38203125 486.64757812 90.2265625 486.69140625 C86.65819345 485.92675574 85.26526774 484.81696312 83.03295898 481.96903992 C80.956078 478.01006224 81.39566101 473.71862342 81.51171875 469.3515625 C81.51675415 468.45332764 81.52178955 467.55509277 81.52697754 466.62963867 C81.55301405 463.29443151 81.62282114 459.9596816 81.6875 456.625 C81.790625 449.15875 81.89375 441.6925 82 434 C56.92 434 31.84 434 6 434 C6.11842945 447.50714129 6.11842945 447.50714129 6.27026367 461.01391602 C6.27903315 462.71890701 6.28667599 464.42390432 6.29296875 466.12890625 C6.3159906 467.4354718 6.3159906 467.4354718 6.33947754 468.76843262 C6.34216222 475.07654403 5.3095356 479.59168535 1.7109375 484.90234375 C-2.46352076 487.58047793 -8.30470796 486.73547808 -13 486 C-16.1015278 484.05997553 -17.50747649 481.58137593 -18.60227966 478.06622314 C-19.02151055 475.88824914 -19.1202035 473.90756217 -19.11352539 471.69042969 C-19.11344986 470.84986023 -19.11337433 470.00929077 -19.11329651 469.14324951 C-19.10813522 468.24519592 -19.10297394 467.34714233 -19.09765625 466.421875 C-19.09553383 465.03201385 -19.09553383 465.03201385 -19.09336853 463.61407471 C-19.08777824 460.65935008 -19.0752275 457.70470167 -19.0625 454.75 C-19.05748375 452.74479276 -19.05292106 450.73958433 -19.04882812 448.734375 C-19.03781199 443.82288737 -19.020554 438.9114566 -19 434 C-19.61228455 434.01110306 -20.22456909 434.02220612 -20.85540771 434.03364563 C-27.28024574 434.14504073 -33.70480549 434.21999673 -40.13037109 434.2746582 C-42.52208618 434.29966264 -44.91372595 434.33367754 -47.30517578 434.37719727 C-50.76093225 434.43846954 -54.21567074 434.46635181 -57.671875 434.48828125 C-58.72550232 434.51408768 -59.77912964 434.5398941 -60.86468506 434.56648254 C-70.62994939 434.57009759 -80.26671264 431.66089112 -87.4765625 424.78515625 C-95.87155583 414.94794612 -98.48950386 404.19512672 -98.29296875 391.5234375 C-98.28872391 390.47217682 -98.28447906 389.42091614 -98.28010559 388.33779907 C-98.26346139 385.01659317 -98.22583614 381.69601906 -98.1875 378.375 C-98.17243473 376.10808175 -98.15874957 373.84115388 -98.14648438 371.57421875 C-98.11360482 366.04926764 -98.06355009 360.52467898 -98 355 C-99.30670654 355.01571045 -100.61341309 355.0314209 -101.9597168 355.04760742 C-106.81447164 355.1019672 -111.66919964 355.13637226 -116.52416992 355.16479492 C-118.62415086 355.17986772 -120.7241004 355.20032941 -122.82397461 355.22631836 C-125.84496824 355.26276754 -128.86554511 355.27974159 -131.88671875 355.29296875 C-132.82335861 355.30845261 -133.75999847 355.32393646 -134.72502136 355.33988953 C-139.65238921 355.34115751 -143.00577133 355.22671408 -147 352 C-149.768691 349.08590728 -150.43134422 347.0575992 -150.4375 343.0625 C-150.32823692 339.52966049 -150.07495173 338.12848868 -148.25 335 C-144.77846169 331.91418816 -142.15365721 330.74624335 -137.50683594 330.77294922 C-136.61399902 330.77319092 -135.72116211 330.77343262 -134.80126953 330.77368164 C-133.87169434 330.78391357 -132.94211914 330.79414551 -131.984375 330.8046875 C-131.12344238 330.80670166 -130.26250977 330.80871582 -129.37548828 330.81079102 C-126.1669378 330.82123588 -122.95846342 330.84915849 -119.75 330.875 C-108.98375 330.936875 -108.98375 330.936875 -98 331 C-98 305.92 -98 280.84 -98 255 C-112.21051304 255.15801996 -112.21051304 255.15801996 -126.42041016 255.36035156 C-128.20995121 255.37204068 -129.99950295 255.38223198 -131.7890625 255.390625 C-132.70840576 255.41108887 -133.62774902 255.43155273 -134.57495117 255.45263672 C-140.22819852 255.45569832 -143.56058275 254.86149979 -148 251 C-150.14870031 247.77694954 -150.40060198 246.46337962 -150.5625 242.6875 C-150.62566406 241.76324219 -150.68882812 240.83898437 -150.75390625 239.88671875 C-149.77069503 236.12198771 -148.14180834 234.7020958 -145.18269348 232.27418518 C-141.14305853 229.91597821 -137.03462841 230.26442526 -132.47265625 230.4140625 C-131.59508667 230.42010498 -130.71751709 230.42614746 -129.81335449 230.43237305 C-126.56258509 230.46355886 -123.31249096 230.5473274 -120.0625 230.625 C-109.1415625 230.810625 -109.1415625 230.810625 -98 231 C-98 205.59 -98 180.18 -98 154 C-112.91390828 154.19765424 -112.91390828 154.19765424 -127.8269043 154.45043945 C-129.70099464 154.46504686 -131.57510086 154.47778693 -133.44921875 154.48828125 C-134.41686157 154.51386108 -135.38450439 154.53944092 -136.38146973 154.5657959 C-143.265842 154.57025296 -143.265842 154.57025296 -147.09692383 151.59448242 C-150.54371609 146.89543671 -150.83003402 142.7380613 -150 137 C-147.80977082 134.17575712 -146.16982793 132.58491397 -143 131 C-141.54962893 130.91050583 -140.09521371 130.8824156 -138.64208984 130.88647461 C-137.29091568 130.88658791 -137.29091568 130.88658791 -135.91244507 130.88670349 C-134.93844757 130.89186478 -133.96445007 130.89702606 -132.9609375 130.90234375 C-131.96494537 130.9037587 -130.96895325 130.90517365 -129.94277954 130.90663147 C-126.75348947 130.91224064 -123.56426894 130.9247947 -120.375 130.9375 C-118.21614685 130.94251382 -116.05729259 130.94707693 -113.8984375 130.95117188 C-108.5989345 130.96221305 -103.29947222 130.97896012 -98 131 C-98.00888245 130.42752029 -98.01776489 129.85504059 -98.0269165 129.26521301 C-98.1161903 123.24567771 -98.17606199 117.22633384 -98.21972656 111.20629883 C-98.23970193 108.96696316 -98.26689182 106.72767871 -98.30175781 104.48852539 C-98.77415099 73.3453108 -98.77415099 73.3453108 -88 62 C-87.47535156 61.44699219 -86.95070312 60.89398438 -86.41015625 60.32421875 C-79.59776906 53.86447278 -70.41695144 50.86140983 -61.11791992 50.88647461 C-60.17732224 50.88655014 -59.23672455 50.88662567 -58.2676239 50.88670349 C-56.7642321 50.89444542 -56.7642321 50.89444542 -55.23046875 50.90234375 C-54.19432938 50.9037587 -53.15819 50.90517365 -52.09065247 50.90663147 C-48.78957196 50.91221758 -45.48855992 50.92476758 -42.1875 50.9375 C-39.94596452 50.94251679 -37.70442798 50.94707939 -35.46289062 50.95117188 C-29.97523716 50.96218247 -24.48762347 50.97890682 -19 51 C-19.01047363 49.794646 -19.02094727 48.58929199 -19.03173828 47.34741211 C-19.06807489 42.85411577 -19.09095007 38.36083231 -19.10986328 33.86743164 C-19.1198898 31.92665418 -19.13351443 29.9858917 -19.15087891 28.04516602 C-19.17527489 25.24752084 -19.18651681 22.45007629 -19.1953125 19.65234375 C-19.20563507 18.7916478 -19.21595764 17.93095184 -19.22659302 17.04417419 C-19.22872509 5.46625361 -19.22872509 5.46625361 -15.27734375 1.09375 C-10.50301565 -1.19923777 -5.14018601 -0.69056998 0 0 Z M-71.75 80 C-73.91833625 83.46933801 -74.12674207 86.29129358 -74.13422108 90.28467941 C-74.13867892 91.38708867 -74.14313676 92.48949792 -74.14772969 93.62531352 C-74.14754533 94.84133982 -74.14736097 96.05736612 -74.14717102 97.3102417 C-74.15084771 98.59826856 -74.1545244 99.88629542 -74.1583125 101.2133534 C-74.16833664 104.79595993 -74.17204995 108.37854971 -74.17470181 111.96116829 C-74.1786036 115.82223346 -74.18818198 119.68328535 -74.19691467 123.54434204 C-74.21668195 132.87208629 -74.22674533 142.19983163 -74.23564246 151.52759159 C-74.24002466 155.91892052 -74.24539163 160.31024825 -74.25063133 164.70157623 C-74.26764337 179.2969017 -74.28213816 193.89222641 -74.28938007 208.48756027 C-74.29129 212.27556102 -74.29321033 216.06356177 -74.29516602 219.8515625 C-74.29564976 220.79306409 -74.2961335 221.73456568 -74.2966319 222.70459762 C-74.3049345 237.9607179 -74.33027541 253.21675983 -74.36274669 268.47284588 C-74.39580358 284.13155808 -74.41382757 299.79023043 -74.41702431 315.44897771 C-74.41919061 324.24259248 -74.42795681 333.03609297 -74.45348549 341.82967377 C-74.47517372 349.31771523 -74.48325216 356.80561466 -74.47351871 364.29368398 C-74.46896861 368.11433581 -74.47090112 371.93469447 -74.49028015 375.75530624 C-74.51110985 379.89768584 -74.50094405 384.03941299 -74.48774719 388.18182373 C-74.49871644 389.38892714 -74.50968568 390.59603055 -74.52098733 391.83971286 C-74.47068912 398.36279622 -74.33177406 402.93703316 -70 408 C-63.35177163 411.68331061 -56.73978064 411.42077231 -49.27830505 411.3742218 C-47.37048322 411.38018341 -47.37048322 411.38018341 -45.42411953 411.38626546 C-41.90973019 411.39681419 -38.39559662 411.38874828 -34.88121855 411.37751496 C-31.08499613 411.36865065 -27.28880636 411.37712286 -23.49258423 411.38337708 C-16.06236965 411.39285386 -8.63225236 411.38627519 -1.20204502 411.37411413 C7.45292664 411.36047734 16.10787526 411.36213346 24.76285493 411.36424746 C40.20609967 411.36743567 55.64929824 411.35577896 71.0925293 411.33618164 C86.07431443 411.31717492 101.05604547 411.31009517 116.0378418 411.31567383 C132.3577345 411.32173278 148.67760343 411.32155267 164.99749416 411.310188 C166.73791722 411.30898072 168.47834029 411.30777473 170.21876335 411.30657005 C171.07505676 411.30596651 171.93135016 411.30536298 172.81359186 411.30474115 C178.84522387 411.30086343 184.87684703 411.30125505 190.90847969 411.3031559 C198.25914036 411.30527885 205.60975367 411.30004611 212.96040101 411.28554235 C216.71011323 411.27830314 220.45975652 411.27421731 224.20947456 411.27878571 C228.27481395 411.28361814 232.3399649 411.27293905 236.4052887 411.26069641 C237.58952677 411.26447573 238.77376484 411.26825506 239.99388891 411.27214891 C245.68913748 411.24174098 250.67533813 411.12139607 256 409 C259.89480719 404.90020296 261.12425334 402.34346244 261.13142776 396.78592968 C261.13526891 395.67382789 261.13911005 394.5617261 261.1430676 393.41592425 C261.14176787 391.56795991 261.14176787 391.56795991 261.14044189 389.68266296 C261.14341302 388.38182874 261.14638414 387.08099452 261.1494453 385.74074107 C261.15753414 382.11780686 261.15930591 378.49489244 261.16004276 374.87195027 C261.16189006 370.96932575 261.16943575 367.06671158 261.17617798 363.16409302 C261.18977525 354.62489328 261.1957882 346.08569824 261.20018864 337.54648948 C261.20294874 332.21728462 261.20718566 326.88808158 261.21169281 321.55887794 C261.22388736 306.81175062 261.23418627 292.06462475 261.2375679 277.31749249 C261.23778747 276.37315255 261.23800703 275.42881261 261.23823325 274.45585631 C261.23845153 273.5092214 261.23866981 272.56258649 261.2388947 271.58726567 C261.23933817 269.66893558 261.23978473 267.75060548 261.24023438 265.83227539 C261.2404558 264.88071183 261.24067723 263.92914828 261.24090537 262.94874946 C261.24485427 247.52633375 261.26231026 232.10396527 261.2855939 216.68156781 C261.30929102 200.85791482 261.32176901 185.03428553 261.32293582 169.2106145 C261.32385351 160.32205657 261.32962943 151.43356016 261.34775543 142.54501915 C261.36313433 134.9767625 261.36829 127.40858639 261.36001733 119.84031709 C261.35610293 115.97743979 261.35707868 112.11472477 261.37107468 108.25186729 C261.38609819 104.06722282 261.37797052 99.88294613 261.36749268 95.69828796 C261.37554908 94.4730039 261.38360548 93.24771984 261.39190602 91.98530596 C261.38202126 90.30541841 261.38202126 90.30541841 261.3719368 88.59159374 C261.37253389 87.62553021 261.37313097 86.65946667 261.37374616 85.66412848 C260.92578614 82.47099051 259.87227975 80.60453572 258 78 C252.42780996 73.83383247 245.92427152 74.58236517 239.27757263 74.61904907 C237.98148781 74.6143691 236.685403 74.60968913 235.35004288 74.60486734 C231.75887365 74.59235184 228.16794381 74.5985301 224.57677376 74.60782599 C220.70147531 74.61461386 216.82621801 74.60413661 212.95092773 74.59588623 C205.36203023 74.58254427 197.77322173 74.58542858 190.18432074 74.59412415 C184.01745072 74.60089797 177.85060566 74.60181873 171.68373299 74.5985527 C170.80620003 74.598093 169.92866707 74.59763331 169.0245422 74.59715968 C167.24189105 74.59620051 165.45923991 74.59522787 163.67658878 74.5942419 C146.95986115 74.58568678 130.24318287 74.59552432 113.52646334 74.611643 C99.17915723 74.62504864 84.83192394 74.62271631 70.48461914 74.60888672 C53.82635631 74.5928371 37.16813673 74.5865083 20.50986725 74.59572351 C18.73406192 74.59667917 16.95825659 74.59762228 15.18245125 74.5985527 C14.30870178 74.59901553 13.43495231 74.59947836 12.53472559 74.59995521 C6.37392859 74.60254678 0.21315901 74.59817055 -5.94763374 74.59111404 C-13.45358951 74.58270582 -20.95945115 74.58496499 -28.46539611 74.60095628 C-32.29588897 74.60884779 -36.1262248 74.61191566 -39.95671654 74.60200882 C-44.10613355 74.59143931 -48.25515305 74.60404813 -52.40455627 74.61904907 C-53.61932996 74.61235691 -54.83410364 74.60566474 -56.08568865 74.59876978 C-57.75142582 74.61050465 -57.75142582 74.61050465 -59.45081425 74.62247658 C-60.40863397 74.62296363 -61.36645369 74.62345069 -62.35329825 74.62395251 C-66.41108269 75.20048882 -69.07572033 76.94368038 -71.75 80 Z " fill="#000000" transform="translate(156,7)"/>
<path d="M0 0 C0.74777539 -0.00311998 1.49555078 -0.00623996 2.26598603 -0.00945449 C4.74918879 -0.01737449 7.23214309 -0.01113446 9.71534729 -0.00482178 C11.50485883 -0.00753433 13.29436925 -0.01109675 15.08387756 -0.01544189 C19.92892292 -0.02453735 24.77388283 -0.0210332 29.61892962 -0.01468372 C34.69827674 -0.00960822 39.7776167 -0.01431956 44.85696411 -0.01745605 C53.38675749 -0.02109151 61.91651621 -0.01630797 70.44630432 -0.0067749 C80.29494998 0.00410534 90.1435128 0.00058549 99.99215645 -0.01042771 C108.46033607 -0.01951672 116.92849081 -0.02077787 125.39667374 -0.01555037 C130.44887496 -0.01243911 135.50103731 -0.01199806 140.55323601 -0.01862335 C145.30488061 -0.02441954 150.05641889 -0.0203584 154.80805206 -0.00883484 C156.54745114 -0.00620024 158.28685922 -0.00693273 160.02625465 -0.01136017 C183.73671371 -0.06612753 183.73671371 -0.06612753 191.74488831 7.82427979 C197.43174689 14.04079677 199.61050208 19.88804572 199.53208923 28.29301453 C199.53676921 29.07330947 199.54144918 29.85360442 199.54627097 30.65754467 C199.55818076 33.25683739 199.54877962 35.85559894 199.5393219 38.45489502 C199.54338942 40.32469997 199.54873232 42.19450252 199.55525208 44.06430054 C199.56891089 49.13250347 199.56363266 54.20052289 199.55411482 59.26872897 C199.5465097 64.57810882 199.55356631 69.88747316 199.55827332 75.19685364 C199.56372885 84.11346247 199.55654503 93.02999673 199.54225159 101.94659424 C199.5259305 112.24686109 199.5312105 122.54694973 199.5477308 132.84721226 C199.56135737 141.69837607 199.56325944 150.54948632 199.5554148 159.40065724 C199.55074409 164.68368866 199.55009679 169.9666364 199.56002426 175.2496624 C199.56870848 180.21802077 199.56264536 185.18615009 199.54534149 190.1544838 C199.54138422 191.97492785 199.54249766 193.79539128 199.54912949 195.61582756 C199.55736537 198.10678828 199.54699917 200.59702163 199.53208923 203.0879364 C199.5387814 203.80302996 199.54547356 204.51812351 199.55236852 205.25488657 C199.46763353 212.58695004 197.20630456 219.23279012 192.04118061 224.52785492 C183.20388385 232.59866221 172.73017476 231.95738512 161.50196838 231.86920166 C159.62024435 231.87270702 157.73852329 231.87837028 155.85681152 231.88601685 C150.77012037 231.90021175 145.68397321 231.88325703 140.59733415 231.85973167 C135.26482276 231.83956371 129.93233264 231.84550517 124.59979248 231.84783936 C115.64977591 231.84778586 106.69997101 231.82807243 97.75001526 231.79595947 C87.40932296 231.75903637 77.06890744 231.75028942 66.72815782 231.75725698 C56.76701365 231.76356529 46.80596415 231.75280376 36.8448391 231.73329163 C32.61095008 231.72512681 28.3771095 231.72240637 24.14321327 231.72398376 C19.15837677 231.7248637 14.17380268 231.71061715 9.18903542 231.68475723 C7.36172762 231.67760565 5.53439189 231.67550695 3.70707321 231.67887497 C1.20932942 231.68260011 -1.28765289 231.66780701 -3.78530884 231.64837646 C-4.50515982 231.65370439 -5.22501081 231.65903232 -5.96667546 231.66452169 C-13.85728684 231.55889903 -19.32592367 228.46051137 -25.05198669 223.22271729 C-30.76971879 216.95807168 -31.99939217 209.99142832 -31.98930359 201.77223206 C-31.99227471 201.01562371 -31.99524583 200.25901536 -31.99830699 199.47947949 C-32.00698322 196.94246488 -32.00850134 194.40549751 -32.00999451 191.86846924 C-32.01462349 190.04999186 -32.01964826 188.23151544 -32.02503967 186.41304016 C-32.03815915 181.47068196 -32.04460792 176.52833734 -32.04905033 171.58596444 C-32.05198219 168.49699169 -32.05608725 165.40802263 -32.0605545 162.31905174 C-32.07422914 152.65106833 -32.08389558 142.98309339 -32.0877564 133.31510097 C-32.09223518 122.16128769 -32.1097749 111.00759708 -32.13875699 99.8538211 C-32.16038936 91.22861554 -32.17046153 82.60344445 -32.17179751 73.97821206 C-32.17284456 68.8286662 -32.17873084 63.67923566 -32.19661713 58.5297184 C-32.21312434 53.68289488 -32.21524042 48.83627303 -32.20647812 43.98943138 C-32.20570913 42.21455214 -32.21003224 40.43966195 -32.21993637 38.66481018 C-32.3330872 17.11686591 -32.3330872 17.11686591 -24.84886169 8.25396729 C-17.26899572 2.00731884 -9.73139827 -0.06360383 0 0 Z M-6.84886169 24.25396729 C-8.31156283 27.17936956 -7.98615273 30.11514373 -7.97584534 33.32124329 C-7.97740533 34.05728599 -7.97896532 34.7933287 -7.98057258 35.55167574 C-7.98457755 38.03066602 -7.98139488 40.50959563 -7.97825623 42.98858643 C-7.97961048 44.76063574 -7.98139054 46.53268478 -7.98356628 48.30473328 C-7.98813744 53.12684924 -7.98635244 57.94894388 -7.9831872 62.77106023 C-7.98066236 67.80747235 -7.98300145 72.84388261 -7.98457336 77.8802948 C-7.98639453 86.33827036 -7.98398996 94.79623719 -7.97923279 103.25421143 C-7.97378851 113.04720224 -7.97555424 122.84017225 -7.98105919 132.63316256 C-7.98558974 141.02720603 -7.98624121 149.42124323 -7.98362052 157.81528753 C-7.98205765 162.83489571 -7.9818643 167.85449408 -7.98515701 172.87410164 C-7.98803493 177.59113991 -7.9860615 182.3081512 -7.98026276 187.02518654 C-7.97893481 188.76149195 -7.97932986 190.49779962 -7.98152542 192.23410416 C-7.98423553 194.59399226 -7.98085756 196.95379251 -7.97584534 199.31367493 C-7.97807606 200.00976854 -7.98030678 200.70586215 -7.9826051 201.42304951 C-8.23664197 204.61617659 -8.23664197 204.61617659 -6.84886169 207.25396729 C-4.49598876 207.3515983 -2.17251483 207.38394173 0.18081665 207.3742218 C1.29690808 207.37550344 1.29690808 207.37550344 2.43554682 207.37681097 C4.94762011 207.37846799 7.45962773 207.37294079 9.97169495 207.36749268 C11.76492308 207.36721083 13.55815133 207.36736849 15.35137939 207.36793518 C20.23547195 207.36822324 25.11954018 207.36232514 30.00362706 207.35536122 C35.10190411 207.3491291 40.20018165 207.348524 45.29846191 207.34733582 C54.9599099 207.34422208 64.62134663 207.33600813 74.28278965 207.32598633 C85.27897453 207.31482649 96.27515994 207.30931507 107.27134907 207.30429089 C129.89795173 207.29382555 152.52454439 207.2762253 175.15113831 207.25396729 C175.17446461 183.54138718 175.19211616 159.82880878 175.20295048 136.11621952 C175.20811401 125.10687439 175.21515778 114.09753637 175.22657776 103.0881958 C175.23652286 93.49614836 175.24299132 83.90410607 175.2452268 74.31205362 C175.2465342 69.22981436 175.24962192 64.14758985 175.25686836 59.0653553 C175.26362584 54.28761057 175.26575583 49.50988674 175.26424599 44.73213768 C175.26452244 42.97325655 175.26652917 41.21437476 175.27034378 39.45549774 C175.27527679 37.06485418 175.27413806 34.67429082 175.27139282 32.28364563 C175.27430566 31.57840588 175.27721851 30.87316613 175.28021961 30.14655548 C175.54354032 26.92123387 175.54354032 26.92123387 174.15113831 24.25396729 C171.81086706 24.15634504 169.50015449 24.12399125 167.15942383 24.13371277 C166.04945772 24.13243113 166.04945772 24.13243113 164.91706806 24.1311236 C162.41881417 24.12946659 159.92062632 24.13499375 157.42237854 24.14044189 C155.6390025 24.14072374 153.85562634 24.14056608 152.07225037 24.13999939 C147.2150164 24.13971133 142.3578069 24.14560941 137.50057864 24.15257335 C132.43032882 24.1588055 127.3600785 24.15941057 122.28982544 24.16059875 C112.68150138 24.16371248 103.07318863 24.17192643 93.46486956 24.18194824 C82.52914303 24.1931081 71.59341597 24.19861951 60.65768516 24.20364368 C38.15549659 24.21410901 15.65331808 24.23170924 -6.84886169 24.25396729 Z " fill="#000000" transform="translate(165.84886169433594,133.74603271484375)"/>
<path d="M0 0 C1.18686401 0.01135986 1.18686401 0.01135986 2.39770508 0.02294922 C8.35013653 0.1911074 13.06810426 1.01461671 18.0625 4.4375 C18.68125 4.82679688 19.3 5.21609375 19.9375 5.6171875 C28.19258559 11.63059037 31.57243522 21.98124419 33.28857422 31.66943359 C36.27614123 52.19043387 35.52442084 74.10944845 23.875 91.75 C15.95563279 99.31739534 7.15105838 100.75771822 -3.39453125 100.6484375 C-11.52231959 100.16453389 -18.15496234 97.22003766 -23.9375 91.4375 C-36.22512111 75.59147278 -35.77940265 51.8426411 -33.4765625 32.8203125 C-31.55522303 21.94779149 -27.81398768 12.11814861 -19.2578125 4.83984375 C-13.04765095 1.08656429 -7.1981466 -0.09668121 0 0 Z M-9.9375 21.4375 C-13.10271426 27.31575506 -13.10229246 34.0065446 -13.140625 40.546875 C-13.14632507 41.3137262 -13.15202515 42.08057739 -13.15789795 42.8706665 C-13.16730407 44.48765706 -13.17386438 46.10466641 -13.17773438 47.72167969 C-13.1874163 50.16636493 -13.21847094 52.61019986 -13.25 55.0546875 C-13.52471242 69.19257533 -13.52471242 69.19257533 -7.375 81.5 C-3.69184979 84.42763222 -1.65041629 84.89066503 3.0625 84.4375 C7.07888341 82.4686846 8.74852177 81.02214912 10.875 77.0625 C13.45454078 69.18811236 13.28178165 61.31542958 13.30273438 53.11767578 C13.31238439 50.83978975 13.34342732 48.56282902 13.375 46.28515625 C13.67657718 32.33781387 13.67657718 32.33781387 8.82250977 19.60205078 C6.2323811 17.07089789 3.5796844 16.09495076 0.0625 15.8125 C-4.63198687 16.12726445 -6.77407614 18.0481173 -9.9375 21.4375 Z " fill="#000000" transform="translate(218.9375,198.5625)"/>
<path d="M0 0 C5.61 0 11.22 0 17 0 C17 32.01 17 64.02 17 97 C10.4 97 3.8 97 -3 97 C-3 75.22 -3 53.44 -3 31 C-10.59 31 -18.18 31 -26 31 C-26 26.05 -26 21.1 -26 16 C-18.875 15.25 -18.875 15.25 -16.66748047 15.04394531 C-11.82767854 14.46374665 -8.78935753 13.01362749 -5 10 C-2.33002168 6.53624434 -1.06670952 4.26683808 0 0 Z " fill="#000000" transform="translate(292,199)"/>
</svg>
